<?xml version="1.0" encoding="UTF-8"?>
<svg id="Capa_1" data-name="Capa 1" xmlns="http://www.w3.org/2000/svg" version="1.1" viewBox="0 0 550 363">
  <defs>
    <style>
      .cls-1 {
        fill: #fff;
      }

      .cls-1, .cls-2 {
        stroke-width: 0px;
      }

      .cls-2 {
        fill: #000;
      }
    </style>
  </defs>
  <path class="cls-2" d="M507.1,345.5l3,2.8c1.6,1.5,3.4,2.5,4,2.2,1.8-1.2,9-12.6,12.4-19.7,3.4-7.1,4.1-10.1,2.9-13.2-1-2.6-2.1-1.9-5.3,3.6-1.7,2.9-6.2,9.6-10,14.8l-7,9.5Z"/>
  <path class="cls-2" d="M506.2,318.2c-1.1.5-12.2,13.9-12.2,14.7s1.5,2.1,3.3,3.8l3.2,3.2,11.7-15.6,11.8-15.6-1.7-2.8c-1-1.6-2-2.9-2.4-2.9s-3.4,3.4-6.9,7.4c-3.4,4.1-6.5,7.6-6.8,7.8Z"/>
  <path class="cls-2" d="M253.9,94c-3-1.1-6.2-2.5-7.1-3-2.6-1.5-18.5-3.7-35.8-5-16.5-1.3-19.5-2.1-24.9-6.8-4.6-4.1-12.8-6.8-16.7-5.5-4.3,1.4-17.7,21.3-21.6,32-.7,1.8-1.7,3.3-2.3,3.3-1.5,0-14.8-28-19.4-40.8-2.1-6.2-4.6-12.4-5.5-13.7-.9-1.4-2-2.5-2.4-2.5-1.3,0-4.5,3.9-8.3,10-1.8,3-3.9,6.1-4.6,6.8-.6.7-2.6,4.2-4.4,7.8l-3.2,6.5v32.7c0,0,.3,32.7.3,32.7l-2.5-3c-1.4-1.7-4.8-6.4-7.5-10.5-2.8-4.1-6.5-9.6-8.3-12.2-1.7-2.6-7.5-11-12.7-18.7-5.7-8.5-10.2-14.1-11.1-14.1-2,0-8.1,6.6-10.5,11.2-.9,1.8-2,3.5-2.4,3.8-1.3.9-5.9,9.5-7.6,14-1.3,3.9-2.9,11.2-5,23.5-.3,1.6-1.7,10.5-3,19.7-3,20.2-7.1,37.3-11.8,49-1.9,4.9-3.3,8.8-3.1,8.8s2.4-2.1,5-4.7c5-5.2,13.4-20.6,16.6-30.5,1.1-3.5,2.9-11.3,4-17.3,2.4-12.7,6.8-31.4,7.9-33.4,1-1.9,3.2.6,13.2,15.3,4.5,6.7,8.5,12.2,9,12.4.4.2,1.7,2,3,4,1.8,3.1,8.1,11.5,9.8,13.2s7.7,10.7,14.7,21.2c8.8,13.3,9.7,13.2,20.1-2.5,7.2-10.8,7.5-12.1,6.8-23.7-2.1-32.7-2.4-38.5-2-38.9,1.2-1.2,6.4,5.8,9.8,13.1,4.8,10.4,12,24.9,15.3,30.8,1.4,2.5,4.1,7.6,6.1,11.5,1.9,3.8,4.3,8.1,5.2,9.5s3.7,6.3,6.1,11c2.3,4.7,4.6,8.7,4.9,9,.4.3,3.3,5.2,6.5,11s6.1,10.7,6.5,11c.3.3,1.9,2.7,3.4,5.5,7,12.4,7.9,14,8.6,14.5.4.3,2.9,4.3,5.5,9s6.7,11.3,9,14.8l4.2,6.2,4.1-3.2c2.2-1.8,6.4-5.4,9.4-8.1,2.9-2.6,7.5-6.7,10.2-9l4.8-4.3-3.7-6c-2-3.2-5-7.7-6.5-9.9-7.2-10.4-10.6-17.9-6.8-14.8,3.9,3.1,17.6,9.4,22.8,10.4,11.7,2.3,20.2-.4,29.6-9.3,5.1-4.8,15.4-18.6,15.4-20.6s.7-1.5,1.5-2.2c4.3-3.6,10.5-27.7,10.5-41s-2.2-22-4.6-30c-6.1-20.7-25.9-42.9-44.5-50ZM278,217c-1.5,2.9-7,4-14.5,2.9-3.6-.5-7.3-1.3-8.3-1.8-.9-.6-4.2-2.1-7.2-3.4-6.7-2.9-13.1-7.5-26.4-18.8-9-7.7-14.5-13.2-20.4-20.9-3-3.8-13.2-18.8-13.2-19.3s-1.8-3.7-4.1-7.8c-6.2-11.3-17.9-39.5-17.9-43.2s2.5-.1,8,6.3c3.3,3.9,7.4,8.6,9.1,10.5,1.8,1.9,4.1,4.7,5.3,6.3,1.1,1.7,4.4,5.7,7.1,9.1,11.1,13.5,24.7,32.6,28.6,40.3,1.1,2.2,2.4,7,2.7,10.6l.7,6.5,5.7-6.1c3.1-3.4,7.5-9.5,9.8-13.7,3.9-7,4.2-8.2,3.8-13.4-.4-5.9-.6-6.2-12.1-24-2.3-3.6-4.6-7.2-5.2-8-.5-.9-2.5-3.7-4.2-6.4-1.8-2.6-3.3-5.2-3.3-5.7,0-1.2,2.4-1.3,4.8,0,.9.5,5.5,2.7,10.2,5,19.8,9.6,34.8,28,40.5,49.6,1.8,6.9,2.2,42.4.5,45.5Z"/>
  <path class="cls-2" d="M244.3,288.6c-4.1,5.1-17.7,22.6-18.6,24.1-.5.7.3,1.9,1.7,2.8,3.2,2.1,5.3,1,9.2-4.7,1.6-2.4,4.5-6.6,6.5-9.3,5.5-7.5,9.2-15.3,8.5-18.1-.8-2.9-2-3.1-3.2-.5-.5,1-2.3,3.6-4.1,5.7Z"/>
  <path class="cls-2" d="M233.8,290.1c1.9-2,4.6-5.2,6-7.1,1.5-1.9,3.5-4.2,4.5-5.2.9-1,1.7-2.3,1.7-2.8,0-2.5-2.1-1.1-12.5,8.5-1.2,1.1-5.6,4.9-9.8,8.5s-7.6,7-7.7,7.6c0,.6,1.1,2.1,2.4,3.3l2.3,2.2,4.9-5.6c2.6-3.2,6.3-7.3,8.2-9.4Z"/>
  <path class="cls-2" d="M518.7,262.7c1.8-1.1,20.3-29.3,20.3-30.9,0-2.5-5.6-14.9-17.9-39.5-6.1-12.3-11.1-22.5-11.1-22.8s-1.4-3.3-3-6.7c-1.7-3.3-5.3-11.6-8-18.5-2.8-6.8-5.5-13.2-6-14.1-1.5-2.9-4.6-12.1-8.5-25.6-3.3-11.6-3.6-13.8-3.1-20.5l.6-7.6-5.5-4.5c-8-6.5-8.6-6.4-14.3,2.2-2.6,4-6.2,9.3-8.1,11.8-3.9,5.4-3.8,6.4,1.2,20.5,5.4,14.8,5.2,19.3-2.2,52.9-1.7,7.7-3.3,14.1-3.5,14.4-.5.4-17.2-5.1-21.1-6.9-1.1-.5-6.6-2.4-12.3-4.3-5.7-1.9-10.6-3.6-10.8-3.9-.2-.2.2-1.7,1.1-3.3,2.4-4.7,1.9-9.6-1.6-14.4-6-8.2-25-26.1-53.9-50.5-12.9-10.9-31.8-28.3-35-32.4-10.3-12.7-13.1-16.4-18.2-24.6-3.2-4.9-6.7-10.7-7.8-12.7-3.3-6.1-2.4-6.7-13.5,9.6-3.6,5.2-6.5,10.2-6.5,11,0,1.5,5.1,11,14.9,28.1l5.2,9-.6,6.9c-.5,6.4,0,8.1,4.9,24,3,9.4,6.7,21.1,8.1,26.1,1.5,4.9,3.5,11.5,4.5,14.5s3.7,12.5,6,21,4.5,16.4,5,17.5,2.5,8.1,4.4,15.5c3.7,14.3,6.4,23.2,11.6,39.5,1.8,5.5,3.4,10.9,3.8,12,1.6,5.8,6.9,9.8,9.9,7.4,1.7-1.5,11.7-22,12.7-26.1.6-2.4-2.6-15-4.4-17.3-1-1.4-9-25.7-9-27.5s21.7,20.1,48.3,46.5c42.7,42.6,75.9,74.9,88.3,85.8l4.1,3.7,4.5-5.3c7.1-8.1,12.9-14.7,18.2-20.9l4.8-5.8-4-7.2c-7.4-13.5-16.2-28.7-21.3-36.8-.8-1.2-1.4-1-3.2,1.5-1.2,1.6-4.2,5.1-6.7,7.7l-4.5,4.8-7.1-6.7c-8.8-8.4-22.9-21.3-26.7-24.5l-2.7-2.3,4.5-9c2.4-5,4.6-9.4,4.8-9.9.5-1.4,3.7,0,12.7,5.8,20.2,12.9,41.2,28.7,51.7,38.8,2.8,2.8,5.5,4.8,6,4.5ZM369,154c-1.7,3.1-9.9,8-13.4,8s-17.9-5.4-18.8-7.2c-.3-.7-1.8-5.4-3.1-10.3-1.4-5-3.6-12.6-5-17-1.3-4.4-2.7-9.2-3.1-10.8-.8-3.3,0-3.4,3.9-.2,1.7,1.3,6.2,5,10.2,8.2,14.5,11.7,20.9,17.2,25.6,22.1,4.4,4.4,4.8,5.2,3.7,7.2ZM434.8,215c-1.7,4.1-3.5,8.1-4.1,8.8-.8,1-5.3-2.9-19.9-17.5s-18.8-19.1-18.8-19.5,0-.8.3-.8c.6,0,15.7,6,17.4,6.9,1,.6,7,3.5,13.3,6.4,16.2,7.7,15.4,6.7,11.8,15.7ZM484.7,194.2c-.7-.6-5.8-3.4-11.2-6.3-5.5-2.8-10.5-5.7-11.2-6.3-1-.9-.5-3.9,2.3-14.1,2-7.2,3.8-14,4.1-15.3s1-2.1,1.6-1.9c.6.2,3.1,6.4,5.7,13.8,2.6,7.4,5.9,16.7,7.3,20.8,3,8.4,3.4,10.9,1.4,9.3Z"/>
  <path class="cls-1" d="M519.4,274c3.7,0,5.9-1.7,12.3-10.1,11-14.3,18.3-27.1,18.3-32.1s-3.3-12.4-12.7-31.8c-4.7-9.6-10.7-22.4-13.4-28.4-2.8-6.1-5.3-11.5-5.8-12-.4-.6-2.9-6.5-5.6-13.1-2.6-6.6-5.8-14.3-7-17-3.1-6.9-9.2-26.7-10.4-34-.6-3.3-1-9.7-.9-14.2l.3-8.1-4.1-4.8c-5-5.9-12.7-12-17.2-13.5-8-2.7-12.8.7-22.9,16.1-3.1,4.7-6.5,9.8-7.7,11.5-3.1,4.5-3.4,13-.6,19.1,3,6.9,5,15.9,5,23.1s-2.5,25.9-4.1,31l-1,3.1-4.7-1.4c-2.6-.9-5.4-1.9-6.2-2.3-.8-.4-3.8-1.4-6.6-2.1l-5.2-1.3-.4-5.4c-.9-10.8-12.4-23.5-52.8-58.1-19.3-16.6-37.2-33.5-45.1-42.8-5.6-6.6-15.3-21.5-21.3-32.9-6.1-11.5-11.6-14.2-18.3-9-1.8,1.4-5.3,6-8,10.3-2.6,4.2-5,7.9-5.4,8.2-1.9,1.3-8.9,16.5-8.9,19.1,0,4.9,3.3,12.8,10.7,25.4,8.2,14.2,9.3,17,9.3,24.2v5.4l-3.2-2.2c-1.8-1.3-3.9-2.9-4.5-3.5-2.1-2-12.3-6.5-21.3-9.4-11.4-3.6-11.1-3.6-30-6-18.5-2.3-25.9-4.1-31-7.4-4.5-2.9-12.5-5.6-16.4-5.6-8.2.2-16.2,6.1-22.6,16.9l-3.9,6.4-2.5-5.5c-1.4-3-4.5-10.7-7-17-4.6-11.9-8.4-19-11.9-22.1-6.2-5.4-15.6.6-25.2,16.2-2.6,4.2-5.6,8.8-6.7,10.4-5.6,8.1-6.3,11.2-6.1,28v15.8c0,0-2.6-4.3-2.6-4.3-5.1-7.9-14.8-19.7-19.2-23.4-4.1-3.4-4.7-3.6-10.1-3.2-7.4.5-11.5,3.7-18.6,14.4-12.4,18.5-14.3,24.8-20.3,67.4-2.6,18.7-6.9,36.8-11.5,47.8-4.8,11.5-4.9,15.5-.6,19.3,3.9,3.5,5.4,3.6,12.4.5,6.1-2.7,14-10.7,18.9-19.1,6.5-11.3,13.1-31.6,15.4-47.8l.6-4.7,3.9,5.2c2.1,2.9,5.6,7.7,7.7,10.6,2.1,2.9,4.8,6.5,6.1,8s4.4,5.8,6.9,9.7c2.6,3.8,5,7.2,5.4,7.5.4.3,2.4,3.4,4.5,7,5,8.5,10.8,14.8,15,15.9,3.3.9,8.7.2,11.6-1.5,3.2-2,9.1-9.6,14.1-18.5,5.8-10.3,7.7-14.8,7.7-18.8s1.3.2,4.1,6.4c2.3,4.9,4.4,9.2,4.8,9.5.3.3,3,5.2,6,11,2.9,5.8,5.9,11.2,6.6,12s2.7,4.2,4.5,7.5c4.3,8.1,17.5,30,21.1,35.2,1.6,2.3,2.9,4.4,2.9,4.6,0,.3,2.2,4.1,5,8.4,2.7,4.3,7.4,11.8,10.5,16.8,3.1,4.9,6.4,10.1,7.4,11.5s3.6,5.2,5.7,8.5c6.3,10,11.8,14.5,17.6,14.5s9.9-2.3,18.2-15c2.7-4.1,6.3-9.4,7.8-11.7,9-13.3,9.1-19.8.3-30.3-3.2-3.8-7.5-11-7.5-12.4s2.6-.7,5.8-1.1c7-.8,15-3.6,22-7.8,5.6-3.3,16.7-15.7,21.8-24.2,2.9-4.9,9.4-17.9,9.4-18.9s.5-1.7,1.1-3.3c1-2.6,1.3-1.9,4.4,9.7,3.3,12.8,4.1,15.5,10.2,34.5,4.7,14.7,5.8,16.7,12.1,23.1,5.9,6,14.5,5.4,20.2-1.4,1.7-2,4.9-7.5,7.1-12.2,2.2-4.7,4.7-9.7,5.5-11.3.8-1.5,1.7-5.7,2-9.5l.5-6.7,33.2,33c18.3,18.2,40.8,40.2,50.1,49s19,18,21.5,20.5,8.6,8.1,13.6,12.5c4.9,4.4,10.3,9.3,11.9,10.9,7.8,7.5,15.4,8.3,21.1,2.2,6.5-7,19.5-32,19.5-37.7s-5.7-14.2-10.6-21c-1.9-2.6-3.4-5-3.4-5.3,0-.6-3.3-6-9.7-15.7-3-4.6-2.9-4.9,1.1-4.9ZM218.4,302.9c-1.3-1.2-2.4-2.7-2.4-3.3,0-.6,3.5-4,7.7-7.6s8.6-7.4,9.8-8.5c10.4-9.6,12.5-11,12.5-8.5s-.8,1.8-1.7,2.8c-1,1-3,3.3-4.5,5.2-1.4,1.9-4.1,5.1-6,7.1-1.9,2.1-5.6,6.2-8.2,9.4l-4.9,5.6-2.3-2.2ZM251.6,283.4c.7,2.8-3,10.6-8.5,18.1-2,2.7-4.9,6.9-6.5,9.3-3.9,5.7-6,6.8-9.2,4.7-1.4-.9-2.2-2.1-1.7-2.8.9-1.5,14.5-19,18.6-24.1,1.8-2.1,3.6-4.7,4.1-5.7,1.2-2.6,2.4-2.4,3.2.5ZM292.5,215c-.8.7-1.5,1.7-1.5,2.2,0,2-10.3,15.8-15.4,20.6-9.4,8.9-17.9,11.6-29.6,9.3-5.2-1-18.9-7.3-22.8-10.4-3.8-3.1-.4,4.4,6.8,14.8,1.5,2.2,4.5,6.7,6.5,9.9l3.7,6-4.8,4.3c-2.7,2.3-7.3,6.4-10.2,9-3,2.7-7.2,6.3-9.4,8.1l-4.1,3.2-4.2-6.2c-2.3-3.5-6.4-10.1-9-14.8s-5.1-8.7-5.5-9c-.7-.5-1.6-2.1-8.6-14.5-1.5-2.8-3.1-5.2-3.4-5.5-.4-.3-3.3-5.2-6.5-11s-6.1-10.7-6.5-11c-.3-.3-2.6-4.3-4.9-9-2.4-4.7-5.2-9.6-6.1-11s-3.3-5.7-5.2-9.5c-2-3.9-4.7-9-6.1-11.5-3.3-5.9-10.5-20.4-15.3-30.8-3.4-7.3-8.6-14.3-9.8-13.1-.4.4,0,6.2,2,38.9.7,11.6.4,12.9-6.8,23.7-10.4,15.7-11.3,15.8-20.1,2.5-7-10.5-13.9-20.4-14.7-21.2-1.7-1.7-8-10.1-9.8-13.2-1.3-2-2.6-3.8-3-4-.5-.2-4.5-5.7-9-12.4-10-14.7-12.2-17.2-13.2-15.3-1.1,2-5.5,20.7-7.9,33.4-1.1,6-2.9,13.8-4,17.3-3.2,9.9-11.6,25.3-16.6,30.5-2.6,2.6-4.8,4.7-5,4.7s1.2-3.9,3.1-8.8c4.7-11.7,8.8-28.8,11.8-49,1.3-9.2,2.7-18.1,3-19.7,2.1-12.3,3.7-19.6,5-23.5,1.7-4.5,6.3-13.1,7.6-14,.4-.3,1.5-2,2.4-3.8,2.4-4.6,8.5-11.2,10.5-11.2s5.4,5.6,11.1,14.1c5.2,7.7,11,16.1,12.7,18.7,1.8,2.6,5.5,8.1,8.3,12.2,2.7,4.1,6.1,8.8,7.5,10.5l2.5,3-.2-32.7v-32.7c0,0,3.1-6.5,3.1-6.5,1.8-3.6,3.8-7.1,4.4-7.8.7-.7,2.8-3.8,4.6-6.8,3.8-6.1,7-10,8.3-10s1.5,1.1,2.4,2.5c.9,1.3,3.4,7.5,5.5,13.7,4.6,12.8,17.9,40.8,19.4,40.8s1.6-1.5,2.3-3.3c3.9-10.7,17.3-30.6,21.6-32,3.9-1.3,12.1,1.4,16.7,5.5,5.4,4.7,8.4,5.5,24.9,6.8,17.3,1.3,33.2,3.5,35.8,5,.9.5,4.1,1.9,7.1,3,18.6,7.1,38.4,29.3,44.5,50,2.4,8,4.6,22.5,4.6,30,0,13.3-6.2,37.4-10.5,41ZM529.4,317.6c1.2,3.1.5,6.1-2.9,13.2-3.4,7.1-10.6,18.5-12.4,19.7-.6.3-2.4-.7-4-2.2l-3-2.8,7-9.5c3.8-5.2,8.3-11.9,10-14.8,3.2-5.5,4.3-6.2,5.3-3.6ZM519.9,303c.4,0,1.4,1.3,2.4,2.9l1.7,2.8-11.8,15.6-11.7,15.6-3.2-3.2c-1.8-1.7-3.3-3.4-3.3-3.8,0-.8,11.1-14.2,12.2-14.7.3-.2,3.4-3.7,6.8-7.8,3.5-4,6.6-7.4,6.9-7.4ZM461,219.4c-9-5.8-12.2-7.2-12.7-5.8-.2.5-2.4,4.9-4.8,9.9l-4.5,9,2.7,2.3c3.8,3.2,17.9,16.1,26.7,24.5l7.1,6.7,4.5-4.8c2.5-2.6,5.5-6.1,6.7-7.7,1.8-2.5,2.4-2.7,3.2-1.5,5.1,8.1,13.9,23.3,21.3,36.8l4,7.2-4.8,5.8c-5.3,6.2-11.1,12.8-18.2,20.9l-4.5,5.3-4.1-3.7c-12.4-10.9-45.6-43.2-88.3-85.8-26.6-26.4-48.3-47.3-48.3-46.5,0,1.8,8,26.1,9,27.5,1.8,2.3,5,14.9,4.4,17.3-1,4.1-11,24.6-12.7,26.1-3,2.4-8.3-1.6-9.9-7.4-.4-1.1-2-6.5-3.8-12-5.2-16.3-7.9-25.2-11.6-39.5-1.9-7.4-3.9-14.4-4.4-15.5s-2.7-9-5-17.5-5-18-6-21-3-9.6-4.5-14.5c-1.4-5-5.1-16.7-8.1-26.1-5-15.9-5.4-17.6-4.9-24l.6-6.9-5.2-9c-9.8-17.1-14.9-26.6-14.9-28.1s2.9-5.8,6.5-11c11.1-16.3,10.2-15.7,13.5-9.6,1.1,2,4.6,7.8,7.8,12.7,5.1,8.2,7.9,11.9,18.2,24.6,3.2,4.1,22.1,21.5,35,32.4,28.9,24.4,47.9,42.3,53.9,50.5,3.5,4.8,4,9.7,1.6,14.4-.9,1.6-1.3,3.1-1.1,3.3.2.3,5.1,2,10.8,3.9,5.7,1.9,11.2,3.8,12.3,4.3,3.9,1.8,20.6,7.3,21.1,6.9.2-.3,1.8-6.7,3.5-14.4,7.4-33.6,7.6-38.1,2.2-52.9-5-14.1-5.1-15.1-1.2-20.5,1.9-2.5,5.5-7.8,8.1-11.8,5.7-8.6,6.3-8.7,14.3-2.2l5.5,4.5-.6,7.6c-.5,6.7-.2,8.9,3.1,20.5,3.9,13.5,7,22.7,8.5,25.6.5.9,3.2,7.3,6,14.1,2.7,6.9,6.3,15.2,8,18.5,1.6,3.4,3,6.3,3,6.7s5,10.5,11.1,22.8c12.3,24.6,17.9,37,17.9,39.5s-18.5,29.8-20.3,30.9c-.5.3-3.2-1.7-6-4.5-10.5-10.1-31.5-25.9-51.7-38.8ZM476.2,247.7q-1.7,2.2-11.4-7.3c-13.5-13.2-13.3-13.5,1.8-3.3,5.7,3.9,10.6,7.4,10.8,7.8.3.4-.3,1.6-1.2,2.8Z"/>
  <path class="cls-1" d="M339.7,124.7c-4-3.2-8.5-6.9-10.2-8.2-3.9-3.2-4.7-3.1-3.9.2.4,1.6,1.8,6.4,3.1,10.8,1.4,4.4,3.6,12,5,17,1.3,4.9,2.8,9.6,3.1,10.3.9,1.8,15,7.2,18.8,7.2s11.7-4.9,13.4-8c1.1-2,.7-2.8-3.7-7.2-4.7-4.9-11.1-10.4-25.6-22.1ZM348.5,148.4c-2-.8-3.5-2.3-3.5-3.7s.5-.9,3.1,1.9c2.1,2.2,2.1,2.4.4,1.8Z"/>
  <path class="cls-1" d="M476,164.1c-2.6-7.4-5.1-13.6-5.7-13.8-.6-.2-1.3.6-1.6,1.9s-2.1,8.1-4.1,15.3c-2.8,10.2-3.3,13.2-2.3,14.1.7.6,5.7,3.5,11.2,6.3,5.4,2.9,10.5,5.7,11.2,6.3,2,1.6,1.6-.9-1.4-9.3-1.4-4.1-4.7-13.4-7.3-20.8Z"/>
  <path class="cls-1" d="M423,199.3c-6.3-2.9-12.3-5.8-13.3-6.4-1.7-.9-16.8-6.9-17.4-6.9s-.3.3-.3.8,8.5,9.2,18.8,19.5c14.6,14.6,19.1,18.5,19.9,17.5.6-.7,2.4-4.7,4.1-8.8,3.6-9,4.4-8-11.8-15.7Z"/>
  <path class="cls-1" d="M237,121.9c-4.7-2.3-9.3-4.5-10.2-5-2.4-1.2-4.8-1.1-4.8,0s1.5,3.1,3.3,5.7c1.7,2.7,3.7,5.5,4.2,6.4.6.8,2.9,4.4,5.2,8,11.5,17.8,11.7,18.1,12.1,24,.4,5.2.1,6.4-3.8,13.4-2.3,4.2-6.7,10.3-9.8,13.7l-5.7,6.1-.7-6.5c-.3-3.6-1.6-8.4-2.7-10.6-3.9-7.7-17.5-26.8-28.6-40.3-2.7-3.4-6-7.4-7.1-9.1-1.2-1.6-3.5-4.4-5.3-6.3-1.7-1.9-5.8-6.6-9.1-10.5-5.5-6.4-8-8.3-8-6.3,0,3.7,11.7,31.9,17.9,43.2,2.3,4.1,4.1,7.6,4.1,7.8,0,.5,10.2,15.5,13.2,19.3,5.9,7.7,11.4,13.2,20.4,20.9,13.3,11.3,19.7,15.9,26.4,18.8,3,1.3,6.3,2.8,7.2,3.4,1,.5,4.7,1.3,8.3,1.8,7.5,1.1,13,0,14.5-2.9,1.7-3.1,1.3-38.6-.5-45.5-5.7-21.6-20.7-40-40.5-49.6ZM268.8,198.5l-.3,11-3-.3c-2.7-.2-12.7-4.9-21.1-9.8l-3.1-1.7,5-6.6c2.7-3.6,6.5-9.9,8.4-14,3.3-6.9,3.5-7.9,3.1-15.2-.3-4.3-1-8.5-1.8-9.3-.7-.9-.8-1.6-.3-1.6s2.8,3.9,5,8.7c6.7,14.4,8.5,23.2,8.1,38.8Z"/>
</svg>